# MagicaVoxel @ Ephtracy

# group
o 

# material
mtllib Mario Player.mtl
usemtl palette

# normals
vn -1 0 0
vn 1 0 0
vn 0 0 1
vn 0 0 -1
vn 0 -1 0
vn 0 1 0

# texcoords
vt 0.0449219 0.5
vt 0.513672 0.5
vt 0.845703 0.5

# verts
v -0.6 0 0.4
v -0.6 0 -0.4
v -0.6 0.1 0.4
v -0.6 0.1 -0.4
v -0.6 0.3 0.4
v -0.6 0.3 -0.4
v -0.6 0.6 0.4
v -0.6 0.6 -0.4
v -0.6 0.7 0.4
v -0.6 0.7 -0.4
v -0.5 0.1 0.4
v -0.5 0.1 -0.4
v -0.5 0.2 0.4
v -0.5 0.2 -0.4
v -0.5 0.7 0.4
v -0.5 0.7 -0.4
v -0.5 0.8 0.4
v -0.5 0.8 -0.4
v -0.5 1 0.4
v -0.5 1 -0.4
v -0.5 1.3 0.4
v -0.5 1.3 -0.4
v -0.4 0.2 0.4
v -0.4 0.2 -0.4
v -0.4 0.3 0.4
v -0.4 0.3 -0.4
v -0.4 0.8 0.4
v -0.4 0.8 -0.4
v -0.4 0.9 0.4
v -0.4 0.9 -0.4
v -0.4 1.3 0.4
v -0.4 1.3 -0.4
v -0.4 1.4 0.4
v -0.4 1.4 -0.4
v -0.4 1.5 0.4
v -0.4 1.5 -0.4
v -0.3 0.9 0.4
v -0.3 0.9 -0.4
v -0.3 1 0.4
v -0.3 1 -0.4
v -0.3 1.5 0.4
v -0.3 1.5 -0.4
v -0.3 1.6 0.4
v -0.3 1.6 -0.4
v 0.1 0.2 0.4
v 0.1 0.2 -0.4
v 0.1 0.3 0.4
v 0.1 0.3 -0.4
v 0.2 0 0.4
v 0.2 0 -0.4
v 0.2 0.2 0.4
v 0.2 0.2 -0.4
v -0.2 0 0.4
v -0.2 0 -0.4
v -0.2 0.2 0.4
v -0.2 0.2 -0.4
v -0.1 0.2 0.4
v -0.1 0.2 -0.4
v -0.1 0.3 0.4
v -0.1 0.3 -0.4
v 0.2 0.8 0.4
v 0.2 0.8 -0.4
v 0.2 0.9 0.4
v 0.2 0.9 -0.4
v 0.2 1.5 0.4
v 0.2 1.5 -0.4
v 0.2 1.6 0.4
v 0.2 1.6 -0.4
v 0.3 1.3 0.4
v 0.3 1.3 -0.4
v 0.3 1.4 0.4
v 0.3 1.4 -0.4
v 0.4 0.2 0.4
v 0.4 0.2 -0.4
v 0.4 0.3 0.4
v 0.4 0.3 -0.4
v 0.4 0.9 0.4
v 0.4 0.9 -0.4
v 0.4 1 0.4
v 0.4 1 -0.4
v 0.5 0.1 0.4
v 0.5 0.1 -0.4
v 0.5 0.2 0.4
v 0.5 0.2 -0.4
v 0.5 0.7 0.4
v 0.5 0.7 -0.4
v 0.5 0.8 0.4
v 0.5 0.8 -0.4
v 0.5 1 0.4
v 0.5 1 -0.4
v 0.5 1.1 0.4
v 0.5 1.1 -0.4
v 0.5 1.2 0.4
v 0.5 1.2 -0.4
v 0.5 1.3 0.4
v 0.5 1.3 -0.4
v 0.5 1.4 0.4
v 0.5 1.4 -0.4
v 0.5 1.5 0.4
v 0.5 1.5 -0.4
v 0.6 0 0.4
v 0.6 0 -0.4
v 0.6 0.1 0.4
v 0.6 0.1 -0.4
v 0.6 0.3 0.4
v 0.6 0.3 -0.4
v 0.6 0.6 0.4
v 0.6 0.6 -0.4
v 0.6 0.7 0.4
v 0.6 0.7 -0.4
v 0.6 1.1 0.4
v 0.6 1.1 -0.4
v 0.6 1.2 0.4
v 0.6 1.2 -0.4
v -0.6 0 0.4
v -0.6 0.1 0.4
v -0.6 0.3 0.4
v -0.6 0.6 0.4
v -0.6 0.7 0.4
v -0.5 0.1 0.4
v -0.5 0.2 0.4
v -0.5 0.7 0.4
v -0.5 0.8 0.4
v -0.5 1 0.4
v -0.5 1.3 0.4
v -0.4 0.2 0.4
v -0.4 0.3 0.4
v -0.4 0.4 0.4
v -0.4 0.5 0.4
v -0.4 0.6 0.4
v -0.4 0.8 0.4
v -0.4 0.9 0.4
v -0.4 1.1 0.4
v -0.4 1.3 0.4
v -0.4 1.4 0.4
v -0.4 1.5 0.4
v -0.3 0.4 0.4
v -0.3 0.5 0.4
v -0.3 0.6 0.4
v -0.3 0.9 0.4
v -0.3 1 0.4
v -0.3 1.1 0.4
v -0.3 1.3 0.4
v -0.3 1.5 0.4
v -0.3 1.6 0.4
v -0.2 0 0.4
v -0.2 0.2 0.4
v -0.2 0.5 0.4
v -0.2 0.6 0.4
v -0.2 0.9 0.4
v -0.2 1.2 0.4
v -0.2 1.3 0.4
v -0.1 0.2 0.4
v -0.1 0.3 0.4
v -0.1 0.5 0.4
v -0.1 0.6 0.4
v -0.1 0.7 0.4
v -0.1 0.9 0.4
v -0.1 1.1 0.4
v -0.1 1.2 0.4
v -0.1 1.3 0.4
v -0.1 1.4 0.4
v 0.1 0.2 0.4
v 0.1 0.3 0.4
v 0.1 0.5 0.4
v 0.1 0.6 0.4
v 0.1 0.7 0.4
v 0.1 0.8 0.4
v 0.1 1 0.4
v 0.1 1.1 0.4
v 0.1 1.2 0.4
v 0.1 1.4 0.4
v 0.2 0 0.4
v 0.2 0.2 0.4
v 0.2 0.5 0.4
v 0.2 0.6 0.4
v 0.2 0.8 0.4
v 0.2 0.9 0.4
v 0.2 1.1 0.4
v 0.2 1.2 0.4
v 0.2 1.4 0.4
v 0.2 1.5 0.4
v 0.2 1.6 0.4
v 0.3 0.4 0.4
v 0.3 0.5 0.4
v 0.3 0.6 0.4
v 0.3 1.1 0.4
v 0.3 1.2 0.4
v 0.3 1.3 0.4
v 0.3 1.4 0.4
v 0.4 0.2 0.4
v 0.4 0.3 0.4
v 0.4 0.4 0.4
v 0.4 0.5 0.4
v 0.4 0.6 0.4
v 0.4 0.9 0.4
v 0.4 1 0.4
v 0.5 0.1 0.4
v 0.5 0.2 0.4
v 0.5 0.7 0.4
v 0.5 0.8 0.4
v 0.5 1 0.4
v 0.5 1.1 0.4
v 0.5 1.2 0.4
v 0.5 1.3 0.4
v 0.5 1.4 0.4
v 0.5 1.5 0.4
v 0.6 0 0.4
v 0.6 0.1 0.4
v 0.6 0.3 0.4
v 0.6 0.6 0.4
v 0.6 0.7 0.4
v 0.6 1.1 0.4
v 0.6 1.2 0.4
v -0.6 0 -0.4
v -0.6 0.1 -0.4
v -0.6 0.3 -0.4
v -0.6 0.6 -0.4
v -0.6 0.7 -0.4
v -0.5 0.1 -0.4
v -0.5 0.2 -0.4
v -0.5 0.7 -0.4
v -0.5 0.8 -0.4
v -0.5 1 -0.4
v -0.5 1.3 -0.4
v -0.4 0.2 -0.4
v -0.4 0.3 -0.4
v -0.4 0.4 -0.4
v -0.4 0.5 -0.4
v -0.4 0.6 -0.4
v -0.4 0.8 -0.4
v -0.4 0.9 -0.4
v -0.4 1.1 -0.4
v -0.4 1.3 -0.4
v -0.4 1.4 -0.4
v -0.4 1.5 -0.4
v -0.3 0.4 -0.4
v -0.3 0.5 -0.4
v -0.3 0.6 -0.4
v -0.3 0.9 -0.4
v -0.3 1 -0.4
v -0.3 1.1 -0.4
v -0.3 1.3 -0.4
v -0.3 1.5 -0.4
v -0.3 1.6 -0.4
v -0.2 0 -0.4
v -0.2 0.2 -0.4
v -0.2 0.5 -0.4
v -0.2 0.6 -0.4
v -0.2 0.9 -0.4
v -0.2 1.2 -0.4
v -0.2 1.3 -0.4
v -0.1 0.2 -0.4
v -0.1 0.3 -0.4
v -0.1 0.5 -0.4
v -0.1 0.6 -0.4
v -0.1 0.7 -0.4
v -0.1 0.9 -0.4
v -0.1 1.1 -0.4
v -0.1 1.2 -0.4
v -0.1 1.3 -0.4
v -0.1 1.4 -0.4
v 0.1 0.2 -0.4
v 0.1 0.3 -0.4
v 0.1 0.5 -0.4
v 0.1 0.6 -0.4
v 0.1 0.7 -0.4
v 0.1 0.8 -0.4
v 0.1 1 -0.4
v 0.1 1.1 -0.4
v 0.1 1.2 -0.4
v 0.1 1.4 -0.4
v 0.2 0 -0.4
v 0.2 0.2 -0.4
v 0.2 0.5 -0.4
v 0.2 0.6 -0.4
v 0.2 0.8 -0.4
v 0.2 0.9 -0.4
v 0.2 1.1 -0.4
v 0.2 1.2 -0.4
v 0.2 1.4 -0.4
v 0.2 1.5 -0.4
v 0.2 1.6 -0.4
v 0.3 0.4 -0.4
v 0.3 0.5 -0.4
v 0.3 0.6 -0.4
v 0.3 1.1 -0.4
v 0.3 1.2 -0.4
v 0.3 1.3 -0.4
v 0.3 1.4 -0.4
v 0.4 0.2 -0.4
v 0.4 0.3 -0.4
v 0.4 0.4 -0.4
v 0.4 0.5 -0.4
v 0.4 0.6 -0.4
v 0.4 0.9 -0.4
v 0.4 1 -0.4
v 0.5 0.1 -0.4
v 0.5 0.2 -0.4
v 0.5 0.7 -0.4
v 0.5 0.8 -0.4
v 0.5 1 -0.4
v 0.5 1.1 -0.4
v 0.5 1.2 -0.4
v 0.5 1.3 -0.4
v 0.5 1.4 -0.4
v 0.5 1.5 -0.4
v 0.6 0 -0.4
v 0.6 0.1 -0.4
v 0.6 0.3 -0.4
v 0.6 0.6 -0.4
v 0.6 0.7 -0.4
v 0.6 1.1 -0.4
v 0.6 1.2 -0.4
v -0.6 0 0.4
v -0.2 0 0.4
v 0.2 0 0.4
v 0.6 0 0.4
v -0.6 0 -0.4
v -0.2 0 -0.4
v 0.2 0 -0.4
v 0.6 0 -0.4
v -0.2 0.2 0.4
v -0.1 0.2 0.4
v 0.1 0.2 0.4
v 0.2 0.2 0.4
v -0.2 0.2 -0.4
v -0.1 0.2 -0.4
v 0.1 0.2 -0.4
v 0.2 0.2 -0.4
v -0.6 0.3 0.4
v -0.4 0.3 0.4
v -0.1 0.3 0.4
v 0.1 0.3 0.4
v 0.4 0.3 0.4
v 0.6 0.3 0.4
v -0.6 0.3 -0.4
v -0.4 0.3 -0.4
v -0.1 0.3 -0.4
v 0.1 0.3 -0.4
v 0.4 0.3 -0.4
v 0.6 0.3 -0.4
v 0.2 0.9 0.4
v 0.4 0.9 0.4
v 0.2 0.9 -0.4
v 0.4 0.9 -0.4
v -0.5 1 0.4
v -0.3 1 0.4
v 0.4 1 0.4
v 0.5 1 0.4
v -0.5 1 -0.4
v -0.3 1 -0.4
v 0.4 1 -0.4
v 0.5 1 -0.4
v 0.5 1.1 0.4
v 0.6 1.1 0.4
v 0.5 1.1 -0.4
v 0.6 1.1 -0.4
v 0.3 1.4 0.4
v 0.5 1.4 0.4
v 0.3 1.4 -0.4
v 0.5 1.4 -0.4
v -0.6 0.1 0.4
v -0.5 0.1 0.4
v 0.5 0.1 0.4
v 0.6 0.1 0.4
v -0.6 0.1 -0.4
v -0.5 0.1 -0.4
v 0.5 0.1 -0.4
v 0.6 0.1 -0.4
v -0.5 0.2 0.4
v -0.4 0.2 0.4
v 0.4 0.2 0.4
v 0.5 0.2 0.4
v -0.5 0.2 -0.4
v -0.4 0.2 -0.4
v 0.4 0.2 -0.4
v 0.5 0.2 -0.4
v -0.6 0.7 0.4
v -0.5 0.7 0.4
v 0.5 0.7 0.4
v 0.6 0.7 0.4
v -0.6 0.7 -0.4
v -0.5 0.7 -0.4
v 0.5 0.7 -0.4
v 0.6 0.7 -0.4
v -0.5 0.8 0.4
v -0.4 0.8 0.4
v 0.2 0.8 0.4
v 0.5 0.8 0.4
v -0.5 0.8 -0.4
v -0.4 0.8 -0.4
v 0.2 0.8 -0.4
v 0.5 0.8 -0.4
v -0.4 0.9 0.4
v -0.3 0.9 0.4
v -0.4 0.9 -0.4
v -0.3 0.9 -0.4
v 0.5 1.2 0.4
v 0.6 1.2 0.4
v 0.5 1.2 -0.4
v 0.6 1.2 -0.4
v -0.5 1.3 0.4
v -0.4 1.3 0.4
v 0.3 1.3 0.4
v 0.5 1.3 0.4
v -0.5 1.3 -0.4
v -0.4 1.3 -0.4
v 0.3 1.3 -0.4
v 0.5 1.3 -0.4
v -0.4 1.5 0.4
v -0.3 1.5 0.4
v 0.2 1.5 0.4
v 0.5 1.5 0.4
v -0.4 1.5 -0.4
v -0.3 1.5 -0.4
v 0.2 1.5 -0.4
v 0.5 1.5 -0.4
v -0.3 1.6 0.4
v 0.2 1.6 0.4
v -0.3 1.6 -0.4
v 0.2 1.6 -0.4

# faces
f 3/2/1 2/2/1 1/2/1
f 4/2/1 2/2/1 3/2/1
f 7/1/1 6/1/1 5/1/1
f 8/1/1 6/1/1 7/1/1
f 9/2/1 8/2/1 7/2/1
f 10/2/1 8/2/1 9/2/1
f 13/2/1 12/2/1 11/2/1
f 14/2/1 12/2/1 13/2/1
f 17/2/1 16/2/1 15/2/1
f 18/2/1 16/2/1 17/2/1
f 21/2/1 20/2/1 19/2/1
f 22/2/1 20/2/1 21/2/1
f 25/3/1 24/3/1 23/3/1
f 26/3/1 24/3/1 25/3/1
f 29/2/1 28/2/1 27/2/1
f 30/2/1 28/2/1 29/2/1
f 33/2/1 32/2/1 31/2/1
f 34/2/1 32/2/1 33/2/1
f 35/3/1 34/3/1 33/3/1
f 36/3/1 34/3/1 35/3/1
f 39/1/1 38/1/1 37/1/1
f 40/1/1 38/1/1 39/1/1
f 43/3/1 42/3/1 41/3/1
f 44/3/1 42/3/1 43/3/1
f 47/3/1 46/3/1 45/3/1
f 48/3/1 46/3/1 47/3/1
f 51/2/1 50/2/1 49/2/1
f 52/2/1 50/2/1 51/2/1
f 53/2/2 54/2/2 55/2/2
f 55/2/2 54/2/2 56/2/2
f 57/3/2 58/3/2 59/3/2
f 59/3/2 58/3/2 60/3/2
f 61/2/2 62/2/2 63/2/2
f 63/2/2 62/2/2 64/2/2
f 65/3/2 66/3/2 67/3/2
f 67/3/2 66/3/2 68/3/2
f 69/1/2 70/1/2 71/1/2
f 71/1/2 70/1/2 72/1/2
f 73/3/2 74/3/2 75/3/2
f 75/3/2 74/3/2 76/3/2
f 77/1/2 78/1/2 79/1/2
f 79/1/2 78/1/2 80/1/2
f 81/2/2 82/2/2 83/2/2
f 83/2/2 82/2/2 84/2/2
f 85/2/2 86/2/2 87/2/2
f 87/2/2 86/2/2 88/2/2
f 89/2/2 90/2/2 91/2/2
f 91/2/2 90/2/2 92/2/2
f 93/1/2 94/1/2 95/1/2
f 95/1/2 94/1/2 96/1/2
f 97/3/2 98/3/2 99/3/2
f 99/3/2 98/3/2 100/3/2
f 101/2/2 102/2/2 103/2/2
f 103/2/2 102/2/2 104/2/2
f 105/1/2 106/1/2 107/1/2
f 107/1/2 106/1/2 108/1/2
f 107/2/2 108/2/2 109/2/2
f 109/2/2 108/2/2 110/2/2
f 111/1/2 112/1/2 113/1/2
f 113/1/2 112/1/2 114/1/2
f 120/2/3 116/2/3 115/2/3
f 122/2/3 119/2/3 118/2/3
f 126/2/3 121/2/3 120/2/3
f 127/1/3 118/1/3 117/1/3
f 128/1/3 118/1/3 127/1/3
f 129/1/3 118/1/3 128/1/3
f 130/2/3 122/2/3 118/2/3
f 130/1/3 118/1/3 129/1/3
f 130/2/3 123/2/3 122/2/3
f 131/2/3 123/2/3 130/2/3
f 133/2/3 125/2/3 124/2/3
f 134/2/3 125/2/3 133/2/3
f 137/1/3 129/1/3 128/1/3
f 137/3/3 128/3/3 127/3/3
f 137/3/3 127/3/3 126/3/3
f 138/2/3 132/2/3 131/2/3
f 138/1/3 129/1/3 137/1/3
f 138/2/3 130/2/3 129/2/3
f 138/2/3 131/2/3 130/2/3
f 139/2/3 132/2/3 138/2/3
f 140/2/3 132/2/3 139/2/3
f 141/2/3 133/2/3 124/2/3
f 142/1/3 134/1/3 133/1/3
f 142/2/3 133/2/3 141/2/3
f 143/2/3 135/2/3 134/2/3
f 143/1/3 134/1/3 142/1/3
f 144/3/3 136/3/3 135/3/3
f 146/2/3 126/2/3 120/2/3
f 146/2/3 120/2/3 115/2/3
f 147/3/3 137/3/3 126/3/3
f 147/2/3 126/2/3 146/2/3
f 147/3/3 138/3/3 137/3/3
f 147/3/3 139/3/3 138/3/3
f 148/3/3 139/3/3 147/3/3
f 149/2/3 140/2/3 139/2/3
f 149/3/3 139/3/3 148/3/3
f 150/1/3 142/1/3 141/1/3
f 150/2/3 140/2/3 149/2/3
f 150/1/3 141/1/3 140/1/3
f 151/2/3 143/2/3 142/2/3
f 152/2/3 135/2/3 143/2/3
f 152/2/3 143/2/3 151/2/3
f 153/3/3 148/3/3 147/3/3
f 154/3/3 148/3/3 153/3/3
f 155/1/3 149/1/3 148/1/3
f 155/3/3 148/3/3 154/3/3
f 156/3/3 150/3/3 149/3/3
f 156/1/3 149/1/3 155/1/3
f 157/3/3 150/3/3 156/3/3
f 158/1/3 142/1/3 150/1/3
f 158/3/3 150/3/3 157/3/3
f 159/2/3 151/2/3 142/2/3
f 159/1/3 142/1/3 158/1/3
f 160/1/3 152/1/3 151/1/3
f 160/2/3 151/2/3 159/2/3
f 161/2/3 135/2/3 152/2/3
f 161/1/3 152/1/3 160/1/3
f 162/3/3 145/3/3 144/3/3
f 162/2/3 135/2/3 161/2/3
f 162/3/3 144/3/3 135/3/3
f 164/3/3 156/3/3 155/3/3
f 164/3/3 157/3/3 156/3/3
f 164/3/3 155/3/3 154/3/3
f 165/3/3 157/3/3 164/3/3
f 166/3/3 157/3/3 165/3/3
f 167/2/3 158/2/3 157/2/3
f 167/3/3 157/3/3 166/3/3
f 168/2/3 158/2/3 167/2/3
f 169/1/3 161/1/3 160/1/3
f 169/1/3 162/1/3 161/1/3
f 169/1/3 160/1/3 159/1/3
f 169/1/3 159/1/3 158/1/3
f 170/1/3 162/1/3 169/1/3
f 171/1/3 162/1/3 170/1/3
f 172/3/3 145/3/3 162/3/3
f 172/1/3 162/1/3 171/1/3
f 174/3/3 165/3/3 164/3/3
f 174/3/3 164/3/3 163/3/3
f 175/1/3 166/1/3 165/1/3
f 175/3/3 165/3/3 174/3/3
f 176/3/3 168/3/3 167/3/3
f 176/1/3 166/1/3 175/1/3
f 176/3/3 167/3/3 166/3/3
f 177/2/3 158/2/3 168/2/3
f 177/3/3 168/3/3 176/3/3
f 178/1/3 169/1/3 158/1/3
f 178/2/3 158/2/3 177/2/3
f 179/1/3 171/1/3 170/1/3
f 179/2/3 170/2/3 169/2/3
f 180/2/3 172/2/3 171/2/3
f 180/1/3 171/1/3 179/1/3
f 181/3/3 145/3/3 172/3/3
f 181/2/3 172/2/3 180/2/3
f 182/3/3 145/3/3 181/3/3
f 183/3/3 145/3/3 182/3/3
f 184/3/3 176/3/3 175/3/3
f 184/3/3 175/3/3 174/3/3
f 185/3/3 176/3/3 184/3/3
f 186/2/3 177/2/3 176/2/3
f 186/3/3 176/3/3 185/3/3
f 187/2/3 180/2/3 179/2/3
f 187/2/3 179/2/3 169/2/3
f 188/1/3 181/1/3 180/1/3
f 188/2/3 180/2/3 187/2/3
f 189/1/3 181/1/3 188/1/3
f 190/3/3 182/3/3 181/3/3
f 190/1/3 181/1/3 189/1/3
f 191/2/3 174/2/3 173/2/3
f 191/3/3 184/3/3 174/3/3
f 192/3/3 184/3/3 191/3/3
f 193/1/3 185/1/3 184/1/3
f 193/3/3 184/3/3 192/3/3
f 194/2/3 186/2/3 185/2/3
f 194/1/3 185/1/3 193/1/3
f 195/2/3 177/2/3 186/2/3
f 195/2/3 186/2/3 194/2/3
f 196/1/3 169/1/3 178/1/3
f 197/2/3 187/2/3 169/2/3
f 197/1/3 169/1/3 196/1/3
f 198/2/3 191/2/3 173/2/3
f 199/2/3 191/2/3 198/2/3
f 200/2/3 177/2/3 195/2/3
f 201/2/3 177/2/3 200/2/3
f 202/2/3 187/2/3 197/2/3
f 203/1/3 189/1/3 188/1/3
f 203/2/3 187/2/3 202/2/3
f 203/1/3 188/1/3 187/1/3
f 204/1/3 189/1/3 203/1/3
f 205/1/3 189/1/3 204/1/3
f 206/3/3 182/3/3 190/3/3
f 207/3/3 182/3/3 206/3/3
f 208/2/3 198/2/3 173/2/3
f 209/2/3 198/2/3 208/2/3
f 210/1/3 194/1/3 193/1/3
f 210/1/3 193/1/3 192/1/3
f 210/1/3 195/1/3 194/1/3
f 211/2/3 200/2/3 195/2/3
f 211/1/3 195/1/3 210/1/3
f 212/2/3 200/2/3 211/2/3
f 213/1/3 204/1/3 203/1/3
f 214/1/3 204/1/3 213/1/3
f 215/2/4 216/2/4 220/2/4
f 218/2/4 219/2/4 222/2/4
f 220/2/4 221/2/4 226/2/4
f 217/1/4 218/1/4 227/1/4
f 227/1/4 218/1/4 228/1/4
f 228/1/4 218/1/4 229/1/4
f 218/2/4 222/2/4 230/2/4
f 229/1/4 218/1/4 230/1/4
f 222/2/4 223/2/4 230/2/4
f 230/2/4 223/2/4 231/2/4
f 224/2/4 225/2/4 233/2/4
f 233/2/4 225/2/4 234/2/4
f 228/1/4 229/1/4 237/1/4
f 227/3/4 228/3/4 237/3/4
f 226/3/4 227/3/4 237/3/4
f 231/2/4 232/2/4 238/2/4
f 237/1/4 229/1/4 238/1/4
f 229/2/4 230/2/4 238/2/4
f 230/2/4 231/2/4 238/2/4
f 238/2/4 232/2/4 239/2/4
f 239/2/4 232/2/4 240/2/4
f 224/2/4 233/2/4 241/2/4
f 233/1/4 234/1/4 242/1/4
f 241/2/4 233/2/4 242/2/4
f 234/2/4 235/2/4 243/2/4
f 242/1/4 234/1/4 243/1/4
f 235/3/4 236/3/4 244/3/4
f 220/2/4 226/2/4 246/2/4
f 215/2/4 220/2/4 246/2/4
f 226/3/4 237/3/4 247/3/4
f 246/2/4 226/2/4 247/2/4
f 237/3/4 238/3/4 247/3/4
f 238/3/4 239/3/4 247/3/4
f 247/3/4 239/3/4 248/3/4
f 239/2/4 240/2/4 249/2/4
f 248/3/4 239/3/4 249/3/4
f 241/1/4 242/1/4 250/1/4
f 249/2/4 240/2/4 250/2/4
f 240/1/4 241/1/4 250/1/4
f 242/2/4 243/2/4 251/2/4
f 243/2/4 235/2/4 252/2/4
f 251/2/4 243/2/4 252/2/4
f 247/3/4 248/3/4 253/3/4
f 253/3/4 248/3/4 254/3/4
f 248/1/4 249/1/4 255/1/4
f 254/3/4 248/3/4 255/3/4
f 249/3/4 250/3/4 256/3/4
f 255/1/4 249/1/4 256/1/4
f 256/3/4 250/3/4 257/3/4
f 250/1/4 242/1/4 258/1/4
f 257/3/4 250/3/4 258/3/4
f 242/2/4 251/2/4 259/2/4
f 258/1/4 242/1/4 259/1/4
f 251/1/4 252/1/4 260/1/4
f 259/2/4 251/2/4 260/2/4
f 252/2/4 235/2/4 261/2/4
f 260/1/4 252/1/4 261/1/4
f 244/3/4 245/3/4 262/3/4
f 261/2/4 235/2/4 262/2/4
f 235/3/4 244/3/4 262/3/4
f 255/3/4 256/3/4 264/3/4
f 256/3/4 257/3/4 264/3/4
f 254/3/4 255/3/4 264/3/4
f 264/3/4 257/3/4 265/3/4
f 265/3/4 257/3/4 266/3/4
f 257/2/4 258/2/4 267/2/4
f 266/3/4 257/3/4 267/3/4
f 267/2/4 258/2/4 268/2/4
f 260/1/4 261/1/4 269/1/4
f 261/1/4 262/1/4 269/1/4
f 259/1/4 260/1/4 269/1/4
f 258/1/4 259/1/4 269/1/4
f 269/1/4 262/1/4 270/1/4
f 270/1/4 262/1/4 271/1/4
f 262/3/4 245/3/4 272/3/4
f 271/1/4 262/1/4 272/1/4
f 264/3/4 265/3/4 274/3/4
f 263/3/4 264/3/4 274/3/4
f 265/1/4 266/1/4 275/1/4
f 274/3/4 265/3/4 275/3/4
f 267/3/4 268/3/4 276/3/4
f 275/1/4 266/1/4 276/1/4
f 266/3/4 267/3/4 276/3/4
f 268/2/4 258/2/4 277/2/4
f 276/3/4 268/3/4 277/3/4
f 258/1/4 269/1/4 278/1/4
f 277/2/4 258/2/4 278/2/4
f 270/1/4 271/1/4 279/1/4
f 269/2/4 270/2/4 279/2/4
f 271/2/4 272/2/4 280/2/4
f 279/1/4 271/1/4 280/1/4
f 272/3/4 245/3/4 281/3/4
f 280/2/4 272/2/4 281/2/4
f 281/3/4 245/3/4 282/3/4
f 282/3/4 245/3/4 283/3/4
f 275/3/4 276/3/4 284/3/4
f 274/3/4 275/3/4 284/3/4
f 284/3/4 276/3/4 285/3/4
f 276/2/4 277/2/4 286/2/4
f 285/3/4 276/3/4 286/3/4
f 279/2/4 280/2/4 287/2/4
f 269/2/4 279/2/4 287/2/4
f 280/1/4 281/1/4 288/1/4
f 287/2/4 280/2/4 288/2/4
f 288/1/4 281/1/4 289/1/4
f 281/3/4 282/3/4 290/3/4
f 289/1/4 281/1/4 290/1/4
f 273/2/4 274/2/4 291/2/4
f 274/3/4 284/3/4 291/3/4
f 291/3/4 284/3/4 292/3/4
f 284/1/4 285/1/4 293/1/4
f 292/3/4 284/3/4 293/3/4
f 285/2/4 286/2/4 294/2/4
f 293/1/4 285/1/4 294/1/4
f 286/2/4 277/2/4 295/2/4
f 294/2/4 286/2/4 295/2/4
f 278/1/4 269/1/4 296/1/4
f 269/2/4 287/2/4 297/2/4
f 296/1/4 269/1/4 297/1/4
f 273/2/4 291/2/4 298/2/4
f 298/2/4 291/2/4 299/2/4
f 295/2/4 277/2/4 300/2/4
f 300/2/4 277/2/4 301/2/4
f 297/2/4 287/2/4 302/2/4
f 288/1/4 289/1/4 303/1/4
f 302/2/4 287/2/4 303/2/4
f 287/1/4 288/1/4 303/1/4
f 303/1/4 289/1/4 304/1/4
f 304/1/4 289/1/4 305/1/4
f 290/3/4 282/3/4 306/3/4
f 306/3/4 282/3/4 307/3/4
f 273/2/4 298/2/4 308/2/4
f 308/2/4 298/2/4 309/2/4
f 293/1/4 294/1/4 310/1/4
f 292/1/4 293/1/4 310/1/4
f 294/1/4 295/1/4 310/1/4
f 295/2/4 300/2/4 311/2/4
f 310/1/4 295/1/4 311/1/4
f 311/2/4 300/2/4 312/2/4
f 303/1/4 304/1/4 313/1/4
f 313/1/4 304/1/4 314/1/4
f 319/2/5 316/2/5 315/2/5
f 320/2/5 316/2/5 319/2/5
f 321/2/5 318/2/5 317/2/5
f 322/2/5 318/2/5 321/2/5
f 327/3/5 324/3/5 323/3/5
f 328/3/5 324/3/5 327/3/5
f 329/3/5 326/3/5 325/3/5
f 330/3/5 326/3/5 329/3/5
f 337/1/5 332/1/5 331/1/5
f 338/1/5 332/1/5 337/1/5
f 339/3/5 334/3/5 333/3/5
f 340/3/5 334/3/5 339/3/5
f 341/1/5 336/1/5 335/1/5
f 342/1/5 336/1/5 341/1/5
f 345/1/5 344/1/5 343/1/5
f 346/1/5 344/1/5 345/1/5
f 351/2/5 348/2/5 347/2/5
f 352/2/5 348/2/5 351/2/5
f 353/2/5 350/2/5 349/2/5
f 354/2/5 350/2/5 353/2/5
f 357/1/5 356/1/5 355/1/5
f 358/1/5 356/1/5 357/1/5
f 361/3/5 360/3/5 359/3/5
f 362/3/5 360/3/5 361/3/5
f 363/2/6 364/2/6 367/2/6
f 367/2/6 364/2/6 368/2/6
f 365/2/6 366/2/6 369/2/6
f 369/2/6 366/2/6 370/2/6
f 371/2/6 372/2/6 375/2/6
f 375/2/6 372/2/6 376/2/6
f 373/2/6 374/2/6 377/2/6
f 377/2/6 374/2/6 378/2/6
f 379/2/6 380/2/6 383/2/6
f 383/2/6 380/2/6 384/2/6
f 381/2/6 382/2/6 385/2/6
f 385/2/6 382/2/6 386/2/6
f 387/2/6 388/2/6 391/2/6
f 391/2/6 388/2/6 392/2/6
f 389/2/6 390/2/6 393/2/6
f 393/2/6 390/2/6 394/2/6
f 395/2/6 396/2/6 397/2/6
f 397/2/6 396/2/6 398/2/6
f 399/1/6 400/1/6 401/1/6
f 401/1/6 400/1/6 402/1/6
f 403/2/6 404/2/6 407/2/6
f 407/2/6 404/2/6 408/2/6
f 405/1/6 406/1/6 409/1/6
f 409/1/6 406/1/6 410/1/6
f 411/3/6 412/3/6 415/3/6
f 415/3/6 412/3/6 416/3/6
f 413/3/6 414/3/6 417/3/6
f 417/3/6 414/3/6 418/3/6
f 419/3/6 420/3/6 421/3/6
f 421/3/6 420/3/6 422/3/6
